# xmcd
#
# Track frame offsets:
#	150
#	16230
#	29875
#	47278
#	76512
#	93513
#	114751
#	145846
#
# Disc length: 2199 seconds
# Revision: 1
# Processed by: cddbd v1.5.2PL0 Copyright (c) Steve Scherf et al.
# Submitted via: dBpowerAMP V12.0
#
DISCID=53089508
DTITLE=Alexis Korner - Accidentally Born in New Orleans
DYEAR=1973
DGENRE=Blues
TTITLE0=Gospel Ship
TTITLE1=One Scotch, One Bourbon, One Beer
TTITLE2=Sweet Sympathy
TTITLE3=Rock Me
TTITLE4=Don't Change on Me
TTITLE5=You Got the Power (To Turn Me On)
TTITLE6=Lo and Behold
TTITLE7=Country Shoes
EXTD=
EXTT0=
EXTT1=
EXTT2=
EXTT3=
EXTT4=
EXTT5=
EXTT6=
EXTT7=
PLAYORDER=
